%TF.GenerationSoftware,KiCad,Pcbnew,(5.1.12)-1*%
%TF.CreationDate,2023-06-15T15:32:22+02:00*%
%TF.ProjectId,cs1,6373312e-6b69-4636-9164-5f7063625858,rev?*%
%TF.SameCoordinates,Original*%
%TF.FileFunction,Legend,Top*%
%TF.FilePolarity,Positive*%
%FSLAX46Y46*%
G04 Gerber Fmt 4.6, Leading zero omitted, Abs format (unit mm)*
G04 Created by KiCad (PCBNEW (5.1.12)-1) date 2023-06-15 15:32:22*
%MOMM*%
%LPD*%
G01*
G04 APERTURE LIST*
%ADD10C,0.300000*%
%ADD11C,0.150000*%
G04 APERTURE END LIST*
D10*
X188678571Y-87714285D02*
X188678571Y-86714285D01*
X190178571Y-87357142D01*
X189607142Y-86142857D02*
X189607142Y-85000000D01*
X190178571Y-84285714D02*
X188678571Y-84285714D01*
X188678571Y-83928571D01*
X188750000Y-83714285D01*
X188892857Y-83571428D01*
X189035714Y-83500000D01*
X189321428Y-83428571D01*
X189535714Y-83428571D01*
X189821428Y-83500000D01*
X189964285Y-83571428D01*
X190107142Y-83714285D01*
X190178571Y-83928571D01*
X190178571Y-84285714D01*
X190178571Y-82785714D02*
X189178571Y-82785714D01*
X189464285Y-82785714D02*
X189321428Y-82714285D01*
X189250000Y-82642857D01*
X189178571Y-82500000D01*
X189178571Y-82357142D01*
X190178571Y-81857142D02*
X189178571Y-81857142D01*
X188678571Y-81857142D02*
X188750000Y-81928571D01*
X188821428Y-81857142D01*
X188750000Y-81785714D01*
X188678571Y-81857142D01*
X188821428Y-81857142D01*
X189178571Y-81285714D02*
X190178571Y-80928571D01*
X189178571Y-80571428D01*
X190107142Y-79428571D02*
X190178571Y-79571428D01*
X190178571Y-79857142D01*
X190107142Y-80000000D01*
X189964285Y-80071428D01*
X189392857Y-80071428D01*
X189250000Y-80000000D01*
X189178571Y-79857142D01*
X189178571Y-79571428D01*
X189250000Y-79428571D01*
X189392857Y-79357142D01*
X189535714Y-79357142D01*
X189678571Y-80071428D01*
D11*
X227352380Y-88780952D02*
X226685714Y-88780952D01*
X226876190Y-88780952D02*
X226780952Y-88733333D01*
X226733333Y-88685714D01*
X226685714Y-88590476D01*
X226685714Y-88495238D01*
X227304761Y-87780952D02*
X227352380Y-87876190D01*
X227352380Y-88066666D01*
X227304761Y-88161904D01*
X227209523Y-88209523D01*
X226828571Y-88209523D01*
X226733333Y-88161904D01*
X226685714Y-88066666D01*
X226685714Y-87876190D01*
X226733333Y-87780952D01*
X226828571Y-87733333D01*
X226923809Y-87733333D01*
X227019047Y-88209523D01*
X226685714Y-87400000D02*
X227352380Y-87161904D01*
X226685714Y-86923809D01*
X227304761Y-86161904D02*
X227352380Y-86257142D01*
X227352380Y-86447619D01*
X227304761Y-86542857D01*
X227209523Y-86590476D01*
X226828571Y-86590476D01*
X226733333Y-86542857D01*
X226685714Y-86447619D01*
X226685714Y-86257142D01*
X226733333Y-86161904D01*
X226828571Y-86114285D01*
X226923809Y-86114285D01*
X227019047Y-86590476D01*
X227352380Y-85685714D02*
X226685714Y-85685714D01*
X226876190Y-85685714D02*
X226780952Y-85638095D01*
X226733333Y-85590476D01*
X226685714Y-85495238D01*
X226685714Y-85400000D01*
X227304761Y-85114285D02*
X227352380Y-85019047D01*
X227352380Y-84828571D01*
X227304761Y-84733333D01*
X227209523Y-84685714D01*
X227161904Y-84685714D01*
X227066666Y-84733333D01*
X227019047Y-84828571D01*
X227019047Y-84971428D01*
X226971428Y-85066666D01*
X226876190Y-85114285D01*
X226828571Y-85114285D01*
X226733333Y-85066666D01*
X226685714Y-84971428D01*
X226685714Y-84828571D01*
X226733333Y-84733333D01*
X227304761Y-83876190D02*
X227352380Y-83971428D01*
X227352380Y-84161904D01*
X227304761Y-84257142D01*
X227209523Y-84304761D01*
X226828571Y-84304761D01*
X226733333Y-84257142D01*
X226685714Y-84161904D01*
X226685714Y-83971428D01*
X226733333Y-83876190D01*
X226828571Y-83828571D01*
X226923809Y-83828571D01*
X227019047Y-84304761D01*
X227352380Y-82638095D02*
X226352380Y-82638095D01*
X226733333Y-82638095D02*
X226685714Y-82542857D01*
X226685714Y-82352380D01*
X226733333Y-82257142D01*
X226780952Y-82209523D01*
X226876190Y-82161904D01*
X227161904Y-82161904D01*
X227257142Y-82209523D01*
X227304761Y-82257142D01*
X227352380Y-82352380D01*
X227352380Y-82542857D01*
X227304761Y-82638095D01*
X226685714Y-81828571D02*
X227352380Y-81590476D01*
X226685714Y-81352380D02*
X227352380Y-81590476D01*
X227590476Y-81685714D01*
X227638095Y-81733333D01*
X227685714Y-81828571D01*
X226685714Y-80209523D02*
X227352380Y-80209523D01*
X226780952Y-80209523D02*
X226733333Y-80161904D01*
X226685714Y-80066666D01*
X226685714Y-79923809D01*
X226733333Y-79828571D01*
X226828571Y-79780952D01*
X227352380Y-79780952D01*
X227352380Y-78876190D02*
X226828571Y-78876190D01*
X226733333Y-78923809D01*
X226685714Y-79019047D01*
X226685714Y-79209523D01*
X226733333Y-79304761D01*
X227304761Y-78876190D02*
X227352380Y-78971428D01*
X227352380Y-79209523D01*
X227304761Y-79304761D01*
X227209523Y-79352380D01*
X227114285Y-79352380D01*
X227019047Y-79304761D01*
X226971428Y-79209523D01*
X226971428Y-78971428D01*
X226923809Y-78876190D01*
X227352380Y-77876190D02*
X227352380Y-78447619D01*
X227352380Y-78161904D02*
X226352380Y-78161904D01*
X226495238Y-78257142D01*
X226590476Y-78352380D01*
X226638095Y-78447619D01*
X226352380Y-77257142D02*
X226352380Y-77161904D01*
X226400000Y-77066666D01*
X226447619Y-77019047D01*
X226542857Y-76971428D01*
X226733333Y-76923809D01*
X226971428Y-76923809D01*
X227161904Y-76971428D01*
X227257142Y-77019047D01*
X227304761Y-77066666D01*
X227352380Y-77161904D01*
X227352380Y-77257142D01*
X227304761Y-77352380D01*
X227257142Y-77400000D01*
X227161904Y-77447619D01*
X226971428Y-77495238D01*
X226733333Y-77495238D01*
X226542857Y-77447619D01*
X226447619Y-77400000D01*
X226400000Y-77352380D01*
X226352380Y-77257142D01*
X226352380Y-76590476D02*
X226352380Y-75971428D01*
X226733333Y-76304761D01*
X226733333Y-76161904D01*
X226780952Y-76066666D01*
X226828571Y-76019047D01*
X226923809Y-75971428D01*
X227161904Y-75971428D01*
X227257142Y-76019047D01*
X227304761Y-76066666D01*
X227352380Y-76161904D01*
X227352380Y-76447619D01*
X227304761Y-76542857D01*
X227257142Y-76590476D01*
X227357142Y-92742857D02*
X227404761Y-92790476D01*
X227452380Y-92933333D01*
X227452380Y-93028571D01*
X227404761Y-93171428D01*
X227309523Y-93266666D01*
X227214285Y-93314285D01*
X227023809Y-93361904D01*
X226880952Y-93361904D01*
X226690476Y-93314285D01*
X226595238Y-93266666D01*
X226500000Y-93171428D01*
X226452380Y-93028571D01*
X226452380Y-92933333D01*
X226500000Y-92790476D01*
X226547619Y-92742857D01*
X227404761Y-92361904D02*
X227452380Y-92219047D01*
X227452380Y-91980952D01*
X227404761Y-91885714D01*
X227357142Y-91838095D01*
X227261904Y-91790476D01*
X227166666Y-91790476D01*
X227071428Y-91838095D01*
X227023809Y-91885714D01*
X226976190Y-91980952D01*
X226928571Y-92171428D01*
X226880952Y-92266666D01*
X226833333Y-92314285D01*
X226738095Y-92361904D01*
X226642857Y-92361904D01*
X226547619Y-92314285D01*
X226500000Y-92266666D01*
X226452380Y-92171428D01*
X226452380Y-91933333D01*
X226500000Y-91790476D01*
X227452380Y-90838095D02*
X227452380Y-91409523D01*
X227452380Y-91123809D02*
X226452380Y-91123809D01*
X226595238Y-91219047D01*
X226690476Y-91314285D01*
X226738095Y-91409523D01*
%TO.C,J3*%
X188166666Y-69952380D02*
X188166666Y-70666666D01*
X188119047Y-70809523D01*
X188023809Y-70904761D01*
X187880952Y-70952380D01*
X187785714Y-70952380D01*
X188547619Y-69952380D02*
X189166666Y-69952380D01*
X188833333Y-70333333D01*
X188976190Y-70333333D01*
X189071428Y-70380952D01*
X189119047Y-70428571D01*
X189166666Y-70523809D01*
X189166666Y-70761904D01*
X189119047Y-70857142D01*
X189071428Y-70904761D01*
X188976190Y-70952380D01*
X188690476Y-70952380D01*
X188595238Y-70904761D01*
X188547619Y-70857142D01*
%TD*%
M02*
