M48
; DRILL file {KiCad (5.1.12)-1} date 06/15/23 15:32:19
; FORMAT={-:-/ absolute / metric / decimal}
; #@! TF.CreationDate,2023-06-15T15:32:19+02:00
; #@! TF.GenerationSoftware,Kicad,Pcbnew,(5.1.12)-1
; #@! TF.FileFunction,Plated,1,2,PTH
FMAT,2
METRIC
T1C0.400
T2C1.000
%
G90
G05
T1
X192.31Y-83.59
X193.7Y-65.4
X193.7Y-69.9
X193.7Y-77.6
X193.7Y-92.1
X196.2Y-77.6
X196.4Y-65.4
X196.4Y-69.9
X196.5Y-92.1
X198.8Y-77.6
X198.8Y-82.5
X199.05Y-92.15
X199.2Y-65.4
X199.2Y-69.9
X199.9Y-81.3
X201.1Y-69.9
X201.3Y-77.6
X201.8Y-92.1
X202.0Y-65.4
X203.7Y-77.6
X204.6Y-92.1
X204.7Y-65.4
X204.7Y-69.9
X206.1Y-79.7
X207.4Y-92.1
X207.5Y-65.4
X207.5Y-69.9
X207.6Y-77.6
X210.3Y-65.4
X210.3Y-69.9
X210.3Y-77.6
X210.3Y-92.1
X211.7Y-88.3
X213.1Y-65.4
X213.1Y-69.9
X213.1Y-92.1
X213.355Y-77.6
X214.3Y-89.6
X215.8Y-65.4
X215.8Y-69.9
X215.9Y-92.1
X215.925Y-77.6
X217.3Y-90.9
X218.6Y-65.4
X218.6Y-69.9
X218.6Y-77.6
X218.6Y-92.1
X221.4Y-65.4
X221.4Y-69.9
X221.6Y-77.6
X221.6Y-92.1
X222.8Y-65.4
T2
X188.5Y-73.5
X191.04Y-73.5
X193.58Y-73.5
X196.12Y-73.5
X198.66Y-73.5
X201.2Y-73.5
X203.74Y-73.5
X206.28Y-73.5
X208.82Y-73.5
X211.36Y-73.5
X213.9Y-73.5
X216.44Y-73.5
X218.98Y-73.5
X221.52Y-73.5
X224.06Y-73.5
X226.6Y-73.5
T0
M30
