%TF.GenerationSoftware,KiCad,Pcbnew,(5.1.12)-1*%
%TF.CreationDate,2023-06-15T15:44:25+02:00*%
%TF.ProjectId,cs2,6373322e-6b69-4636-9164-5f7063625858,rev?*%
%TF.SameCoordinates,Original*%
%TF.FileFunction,Copper,L2,Bot*%
%TF.FilePolarity,Positive*%
%FSLAX46Y46*%
G04 Gerber Fmt 4.6, Leading zero omitted, Abs format (unit mm)*
G04 Created by KiCad (PCBNEW (5.1.12)-1) date 2023-06-15 15:44:25*
%MOMM*%
%LPD*%
G01*
G04 APERTURE LIST*
%TA.AperFunction,ComponentPad*%
%ADD10R,1.400000X1.400000*%
%TD*%
%TA.AperFunction,ComponentPad*%
%ADD11O,1.400000X1.400000*%
%TD*%
%TA.AperFunction,ComponentPad*%
%ADD12C,1.600000*%
%TD*%
%TA.AperFunction,ComponentPad*%
%ADD13C,1.400000*%
%TD*%
%TA.AperFunction,ComponentPad*%
%ADD14R,1.700000X1.700000*%
%TD*%
%TA.AperFunction,ComponentPad*%
%ADD15O,1.700000X1.700000*%
%TD*%
%TA.AperFunction,ViaPad*%
%ADD16C,0.800000*%
%TD*%
%TA.AperFunction,Conductor*%
%ADD17C,0.500000*%
%TD*%
%TA.AperFunction,Conductor*%
%ADD18C,0.250000*%
%TD*%
G04 APERTURE END LIST*
D10*
%TO.P,U1,1*%
%TO.N,Net-(J4-Pad16)*%
X169920000Y-108210000D03*
D11*
%TO.P,U1,8*%
%TO.N,Net-(J4-Pad10)*%
X154680000Y-115830000D03*
%TO.P,U1,2*%
%TO.N,Net-(J4-Pad11)*%
X167380000Y-108210000D03*
%TO.P,U1,9*%
X157220000Y-115830000D03*
%TO.P,U1,3*%
%TO.N,Net-(U1-Pad3)*%
X164840000Y-108210000D03*
%TO.P,U1,10*%
%TO.N,Net-(J4-Pad17)*%
X159760000Y-115830000D03*
%TO.P,U1,4*%
%TO.N,Net-(U1-Pad3)*%
X162300000Y-108210000D03*
%TO.P,U1,11*%
%TO.N,N/C*%
X162300000Y-115830000D03*
%TO.P,U1,5*%
%TO.N,Net-(J4-Pad10)*%
X159760000Y-108210000D03*
%TO.P,U1,12*%
%TO.N,N/C*%
X164840000Y-115830000D03*
%TO.P,U1,6*%
%TO.N,Net-(J4-Pad10)*%
X157220000Y-108210000D03*
%TO.P,U1,13*%
%TO.N,N/C*%
X167380000Y-115830000D03*
%TO.P,U1,7*%
%TO.N,GND*%
X154680000Y-108210000D03*
%TO.P,U1,14*%
%TO.N,5V*%
X169920000Y-115830000D03*
%TD*%
%TO.P,U2,14*%
%TO.N,5V*%
X145920000Y-115830000D03*
%TO.P,U2,7*%
%TO.N,GND*%
X130680000Y-108210000D03*
%TO.P,U2,13*%
%TO.N,Net-(J4-Pad12)*%
X143380000Y-115830000D03*
%TO.P,U2,6*%
%TO.N,Net-(J4-Pad4)*%
X133220000Y-108210000D03*
%TO.P,U2,12*%
%TO.N,Net-(J4-Pad15)*%
X140840000Y-115830000D03*
%TO.P,U2,5*%
%TO.N,Net-(J4-Pad5)*%
X135760000Y-108210000D03*
%TO.P,U2,11*%
%TO.N,Net-(J4-Pad14)*%
X138300000Y-115830000D03*
%TO.P,U2,4*%
%TO.N,Net-(J4-Pad5)*%
X138300000Y-108210000D03*
%TO.P,U2,10*%
%TO.N,Net-(J4-Pad13)*%
X135760000Y-115830000D03*
%TO.P,U2,3*%
%TO.N,Net-(J4-Pad14)*%
X140840000Y-108210000D03*
%TO.P,U2,9*%
%TO.N,Net-(J4-Pad13)*%
X133220000Y-115830000D03*
%TO.P,U2,2*%
%TO.N,Net-(J4-Pad14)*%
X143380000Y-108210000D03*
%TO.P,U2,8*%
%TO.N,Net-(J4-Pad5)*%
X130680000Y-115830000D03*
D10*
%TO.P,U2,1*%
%TO.N,Net-(C1-Pad1)*%
X145920000Y-108210000D03*
%TD*%
D12*
%TO.P,C2,2*%
%TO.N,GND*%
X166920000Y-103210000D03*
%TO.P,C2,1*%
%TO.N,5V*%
X171920000Y-103210000D03*
%TD*%
D13*
%TO.P,R1,1*%
%TO.N,Net-(C1-Pad1)*%
X137920000Y-103210000D03*
D11*
%TO.P,R1,2*%
%TO.N,Net-(J4-Pad15)*%
X148080000Y-103210000D03*
%TD*%
D12*
%TO.P,C1,1*%
%TO.N,Net-(C1-Pad1)*%
X134920000Y-103210000D03*
%TO.P,C1,2*%
%TO.N,GND*%
X129920000Y-103210000D03*
%TD*%
D14*
%TO.P,J4,1*%
%TO.N,Net-(J4-Pad1)*%
X171920000Y-97210000D03*
D15*
%TO.P,J4,2*%
%TO.N,Net-(J4-Pad2)*%
X169380000Y-97210000D03*
%TO.P,J4,3*%
%TO.N,5V*%
X166840000Y-97210000D03*
%TO.P,J4,4*%
%TO.N,Net-(J4-Pad4)*%
X164300000Y-97210000D03*
%TO.P,J4,5*%
%TO.N,Net-(J4-Pad5)*%
X161760000Y-97210000D03*
%TO.P,J4,6*%
%TO.N,Net-(J4-Pad6)*%
X159220000Y-97210000D03*
%TO.P,J4,7*%
%TO.N,Net-(J4-Pad7)*%
X156680000Y-97210000D03*
%TO.P,J4,8*%
%TO.N,GND*%
X154140000Y-97210000D03*
%TO.P,J4,9*%
X151600000Y-97210000D03*
%TO.P,J4,10*%
%TO.N,Net-(J4-Pad10)*%
X149060000Y-97210000D03*
%TO.P,J4,11*%
%TO.N,Net-(J4-Pad11)*%
X146520000Y-97210000D03*
%TO.P,J4,12*%
%TO.N,Net-(J4-Pad12)*%
X143980000Y-97210000D03*
%TO.P,J4,13*%
%TO.N,Net-(J4-Pad13)*%
X141440000Y-97210000D03*
%TO.P,J4,14*%
%TO.N,Net-(J4-Pad14)*%
X138900000Y-97210000D03*
%TO.P,J4,15*%
%TO.N,Net-(J4-Pad15)*%
X136360000Y-97210000D03*
%TO.P,J4,16*%
%TO.N,Net-(J4-Pad16)*%
X133820000Y-97210000D03*
%TO.P,J4,17*%
%TO.N,Net-(J4-Pad17)*%
X131280000Y-97210000D03*
%TO.P,J4,18*%
%TO.N,Net-(J4-Pad14)*%
X128740000Y-97210000D03*
%TD*%
D16*
%TO.N,Net-(J4-Pad4)*%
X164320000Y-106010000D03*
%TO.N,Net-(J4-Pad14)*%
X140820000Y-103110000D03*
%TO.N,Net-(J4-Pad17)*%
X152020000Y-110510000D03*
%TD*%
D17*
%TO.N,GND*%
X154140000Y-97210000D02*
X157540000Y-100610000D01*
X157540000Y-100610000D02*
X160820000Y-100610000D01*
X163420000Y-103210000D02*
X166920000Y-103210000D01*
X160820000Y-100610000D02*
X163420000Y-103210000D01*
X154680000Y-109750000D02*
X154680000Y-108210000D01*
X152420000Y-112010000D02*
X154680000Y-109750000D01*
X134480000Y-112010000D02*
X152420000Y-112010000D01*
X130680000Y-108210000D02*
X134480000Y-112010000D01*
D18*
%TO.N,Net-(J4-Pad4)*%
X164420000Y-106110000D02*
X164320000Y-106010000D01*
X167320000Y-106110000D02*
X164420000Y-106110000D01*
X168620000Y-107410000D02*
X167320000Y-106110000D01*
X134520000Y-116610000D02*
X136020000Y-118110000D01*
X167720000Y-118110000D02*
X168620000Y-117210000D01*
X134520000Y-114810000D02*
X134520000Y-116610000D01*
X128820000Y-109110000D02*
X134520000Y-114810000D01*
X136020000Y-118110000D02*
X167720000Y-118110000D01*
X128820000Y-107410000D02*
X128820000Y-109110000D01*
X129820000Y-106410000D02*
X128820000Y-107410000D01*
X131420000Y-106410000D02*
X129820000Y-106410000D01*
X168620000Y-117210000D02*
X168620000Y-107410000D01*
X133220000Y-108210000D02*
X131420000Y-106410000D01*
%TO.N,Net-(J4-Pad5)*%
X161760000Y-98850000D02*
X161760000Y-97210000D01*
X163320000Y-100410000D02*
X161760000Y-98850000D01*
X166420000Y-100410000D02*
X163320000Y-100410000D01*
X172120000Y-115910000D02*
X172120000Y-106110000D01*
X169320000Y-118710000D02*
X172120000Y-115910000D01*
X133560000Y-118710000D02*
X169320000Y-118710000D01*
X172120000Y-106110000D02*
X166420000Y-100410000D01*
X130680000Y-115830000D02*
X133560000Y-118710000D01*
%TO.N,Net-(J4-Pad10)*%
X157220000Y-108210000D02*
X157220000Y-110510000D01*
X154680000Y-113050000D02*
X154680000Y-115830000D01*
X157220000Y-110510000D02*
X154680000Y-113050000D01*
%TO.N,Net-(J4-Pad11)*%
X157220000Y-113710000D02*
X157220000Y-115830000D01*
X158620000Y-112310000D02*
X157220000Y-113710000D01*
X165520000Y-112310000D02*
X158620000Y-112310000D01*
X167380000Y-110450000D02*
X165520000Y-112310000D01*
X167380000Y-108210000D02*
X167380000Y-110450000D01*
%TO.N,Net-(J4-Pad14)*%
X140840000Y-103130000D02*
X140820000Y-103110000D01*
X140840000Y-108210000D02*
X140840000Y-103130000D01*
X140840000Y-108130000D02*
X140840000Y-108210000D01*
X135520000Y-106310000D02*
X139020000Y-106310000D01*
X128740000Y-99530000D02*
X135520000Y-106310000D01*
X139020000Y-106310000D02*
X140840000Y-108130000D01*
X128740000Y-97210000D02*
X128740000Y-99530000D01*
%TO.N,Net-(J4-Pad16)*%
X135720000Y-99110000D02*
X133820000Y-97210000D01*
X154320000Y-99110000D02*
X135720000Y-99110000D01*
X156720000Y-101510000D02*
X154320000Y-99110000D01*
X160320000Y-101510000D02*
X156720000Y-101510000D01*
X166854998Y-104810000D02*
X163620000Y-104810000D01*
X169654998Y-107610000D02*
X166854998Y-104810000D01*
X169920000Y-107610000D02*
X169654998Y-107610000D01*
X163620000Y-104810000D02*
X160320000Y-101510000D01*
X169920000Y-108210000D02*
X169920000Y-107610000D01*
%TO.N,Net-(J4-Pad17)*%
X150200000Y-110510000D02*
X152020000Y-110510000D01*
X147990000Y-108300000D02*
X150200000Y-110510000D01*
X147990000Y-105860000D02*
X147990000Y-108300000D01*
X142040000Y-99910000D02*
X147990000Y-105860000D01*
X133980000Y-99910000D02*
X142040000Y-99910000D01*
X131280000Y-97210000D02*
X133980000Y-99910000D01*
%TD*%
M02*
