%TF.GenerationSoftware,KiCad,Pcbnew,(5.1.12)-1*%
%TF.CreationDate,2023-06-15T15:44:25+02:00*%
%TF.ProjectId,cs2,6373322e-6b69-4636-9164-5f7063625858,rev?*%
%TF.SameCoordinates,Original*%
%TF.FileFunction,Legend,Top*%
%TF.FilePolarity,Positive*%
%FSLAX46Y46*%
G04 Gerber Fmt 4.6, Leading zero omitted, Abs format (unit mm)*
G04 Created by KiCad (PCBNEW (5.1.12)-1) date 2023-06-15 15:44:25*
%MOMM*%
%LPD*%
G01*
G04 APERTURE LIST*
%ADD10C,0.300000*%
%ADD11C,0.150000*%
G04 APERTURE END LIST*
D10*
X153785714Y-102678571D02*
X154785714Y-102678571D01*
X154142857Y-104178571D01*
X155357142Y-103607142D02*
X156500000Y-103607142D01*
X157214285Y-104178571D02*
X157214285Y-102678571D01*
X157571428Y-102678571D01*
X157785714Y-102750000D01*
X157928571Y-102892857D01*
X158000000Y-103035714D01*
X158071428Y-103321428D01*
X158071428Y-103535714D01*
X158000000Y-103821428D01*
X157928571Y-103964285D01*
X157785714Y-104107142D01*
X157571428Y-104178571D01*
X157214285Y-104178571D01*
X158714285Y-104178571D02*
X158714285Y-103178571D01*
X158714285Y-103464285D02*
X158785714Y-103321428D01*
X158857142Y-103250000D01*
X159000000Y-103178571D01*
X159142857Y-103178571D01*
X159642857Y-104178571D02*
X159642857Y-103178571D01*
X159642857Y-102678571D02*
X159571428Y-102750000D01*
X159642857Y-102821428D01*
X159714285Y-102750000D01*
X159642857Y-102678571D01*
X159642857Y-102821428D01*
X160214285Y-103178571D02*
X160571428Y-104178571D01*
X160928571Y-103178571D01*
X162071428Y-104107142D02*
X161928571Y-104178571D01*
X161642857Y-104178571D01*
X161500000Y-104107142D01*
X161428571Y-103964285D01*
X161428571Y-103392857D01*
X161500000Y-103250000D01*
X161642857Y-103178571D01*
X161928571Y-103178571D01*
X162071428Y-103250000D01*
X162142857Y-103392857D01*
X162142857Y-103535714D01*
X161428571Y-103678571D01*
X151928571Y-119178571D02*
X151928571Y-118178571D01*
X151928571Y-118464285D02*
X152000000Y-118321428D01*
X152071428Y-118250000D01*
X152214285Y-118178571D01*
X152357142Y-118178571D01*
X153428571Y-119107142D02*
X153285714Y-119178571D01*
X153000000Y-119178571D01*
X152857142Y-119107142D01*
X152785714Y-118964285D01*
X152785714Y-118392857D01*
X152857142Y-118250000D01*
X153000000Y-118178571D01*
X153285714Y-118178571D01*
X153428571Y-118250000D01*
X153500000Y-118392857D01*
X153500000Y-118535714D01*
X152785714Y-118678571D01*
X154000000Y-118178571D02*
X154357142Y-119178571D01*
X154714285Y-118178571D01*
X155857142Y-119107142D02*
X155714285Y-119178571D01*
X155428571Y-119178571D01*
X155285714Y-119107142D01*
X155214285Y-118964285D01*
X155214285Y-118392857D01*
X155285714Y-118250000D01*
X155428571Y-118178571D01*
X155714285Y-118178571D01*
X155857142Y-118250000D01*
X155928571Y-118392857D01*
X155928571Y-118535714D01*
X155214285Y-118678571D01*
X156571428Y-119178571D02*
X156571428Y-118178571D01*
X156571428Y-118464285D02*
X156642857Y-118321428D01*
X156714285Y-118250000D01*
X156857142Y-118178571D01*
X157000000Y-118178571D01*
X157428571Y-119107142D02*
X157571428Y-119178571D01*
X157857142Y-119178571D01*
X158000000Y-119107142D01*
X158071428Y-118964285D01*
X158071428Y-118892857D01*
X158000000Y-118750000D01*
X157857142Y-118678571D01*
X157642857Y-118678571D01*
X157500000Y-118607142D01*
X157428571Y-118464285D01*
X157428571Y-118392857D01*
X157500000Y-118250000D01*
X157642857Y-118178571D01*
X157857142Y-118178571D01*
X158000000Y-118250000D01*
X159285714Y-119107142D02*
X159142857Y-119178571D01*
X158857142Y-119178571D01*
X158714285Y-119107142D01*
X158642857Y-118964285D01*
X158642857Y-118392857D01*
X158714285Y-118250000D01*
X158857142Y-118178571D01*
X159142857Y-118178571D01*
X159285714Y-118250000D01*
X159357142Y-118392857D01*
X159357142Y-118535714D01*
X158642857Y-118678571D01*
X161142857Y-119178571D02*
X161142857Y-117678571D01*
X161142857Y-118250000D02*
X161285714Y-118178571D01*
X161571428Y-118178571D01*
X161714285Y-118250000D01*
X161785714Y-118321428D01*
X161857142Y-118464285D01*
X161857142Y-118892857D01*
X161785714Y-119035714D01*
X161714285Y-119107142D01*
X161571428Y-119178571D01*
X161285714Y-119178571D01*
X161142857Y-119107142D01*
X162357142Y-118178571D02*
X162714285Y-119178571D01*
X163071428Y-118178571D02*
X162714285Y-119178571D01*
X162571428Y-119535714D01*
X162500000Y-119607142D01*
X162357142Y-119678571D01*
X164785714Y-118178571D02*
X164785714Y-119178571D01*
X164785714Y-118321428D02*
X164857142Y-118250000D01*
X165000000Y-118178571D01*
X165214285Y-118178571D01*
X165357142Y-118250000D01*
X165428571Y-118392857D01*
X165428571Y-119178571D01*
X166785714Y-119178571D02*
X166785714Y-118392857D01*
X166714285Y-118250000D01*
X166571428Y-118178571D01*
X166285714Y-118178571D01*
X166142857Y-118250000D01*
X166785714Y-119107142D02*
X166642857Y-119178571D01*
X166285714Y-119178571D01*
X166142857Y-119107142D01*
X166071428Y-118964285D01*
X166071428Y-118821428D01*
X166142857Y-118678571D01*
X166285714Y-118607142D01*
X166642857Y-118607142D01*
X166785714Y-118535714D01*
X168285714Y-119178571D02*
X167428571Y-119178571D01*
X167857142Y-119178571D02*
X167857142Y-117678571D01*
X167714285Y-117892857D01*
X167571428Y-118035714D01*
X167428571Y-118107142D01*
X169214285Y-117678571D02*
X169357142Y-117678571D01*
X169500000Y-117750000D01*
X169571428Y-117821428D01*
X169642857Y-117964285D01*
X169714285Y-118250000D01*
X169714285Y-118607142D01*
X169642857Y-118892857D01*
X169571428Y-119035714D01*
X169500000Y-119107142D01*
X169357142Y-119178571D01*
X169214285Y-119178571D01*
X169071428Y-119107142D01*
X169000000Y-119035714D01*
X168928571Y-118892857D01*
X168857142Y-118607142D01*
X168857142Y-118250000D01*
X168928571Y-117964285D01*
X169000000Y-117821428D01*
X169071428Y-117750000D01*
X169214285Y-117678571D01*
X170214285Y-117678571D02*
X171142857Y-117678571D01*
X170642857Y-118250000D01*
X170857142Y-118250000D01*
X171000000Y-118321428D01*
X171071428Y-118392857D01*
X171142857Y-118535714D01*
X171142857Y-118892857D01*
X171071428Y-119035714D01*
X171000000Y-119107142D01*
X170857142Y-119178571D01*
X170428571Y-119178571D01*
X170285714Y-119107142D01*
X170214285Y-119035714D01*
X127755714Y-119345714D02*
X127684285Y-119417142D01*
X127470000Y-119488571D01*
X127327142Y-119488571D01*
X127112857Y-119417142D01*
X126970000Y-119274285D01*
X126898571Y-119131428D01*
X126827142Y-118845714D01*
X126827142Y-118631428D01*
X126898571Y-118345714D01*
X126970000Y-118202857D01*
X127112857Y-118060000D01*
X127327142Y-117988571D01*
X127470000Y-117988571D01*
X127684285Y-118060000D01*
X127755714Y-118131428D01*
X128327142Y-119417142D02*
X128541428Y-119488571D01*
X128898571Y-119488571D01*
X129041428Y-119417142D01*
X129112857Y-119345714D01*
X129184285Y-119202857D01*
X129184285Y-119060000D01*
X129112857Y-118917142D01*
X129041428Y-118845714D01*
X128898571Y-118774285D01*
X128612857Y-118702857D01*
X128470000Y-118631428D01*
X128398571Y-118560000D01*
X128327142Y-118417142D01*
X128327142Y-118274285D01*
X128398571Y-118131428D01*
X128470000Y-118060000D01*
X128612857Y-117988571D01*
X128970000Y-117988571D01*
X129184285Y-118060000D01*
X129755714Y-118131428D02*
X129827142Y-118060000D01*
X129970000Y-117988571D01*
X130327142Y-117988571D01*
X130470000Y-118060000D01*
X130541428Y-118131428D01*
X130612857Y-118274285D01*
X130612857Y-118417142D01*
X130541428Y-118631428D01*
X129684285Y-119488571D01*
X130612857Y-119488571D01*
%TO.C,U1*%
D11*
X171702380Y-112781904D02*
X172511904Y-112781904D01*
X172607142Y-112734285D01*
X172654761Y-112686666D01*
X172702380Y-112591428D01*
X172702380Y-112400952D01*
X172654761Y-112305714D01*
X172607142Y-112258095D01*
X172511904Y-112210476D01*
X171702380Y-112210476D01*
X172702380Y-111210476D02*
X172702380Y-111781904D01*
X172702380Y-111496190D02*
X171702380Y-111496190D01*
X171845238Y-111591428D01*
X171940476Y-111686666D01*
X171988095Y-111781904D01*
%TO.C,U2*%
X147702380Y-112781904D02*
X148511904Y-112781904D01*
X148607142Y-112734285D01*
X148654761Y-112686666D01*
X148702380Y-112591428D01*
X148702380Y-112400952D01*
X148654761Y-112305714D01*
X148607142Y-112258095D01*
X148511904Y-112210476D01*
X147702380Y-112210476D01*
X147797619Y-111781904D02*
X147750000Y-111734285D01*
X147702380Y-111639047D01*
X147702380Y-111400952D01*
X147750000Y-111305714D01*
X147797619Y-111258095D01*
X147892857Y-111210476D01*
X147988095Y-111210476D01*
X148130952Y-111258095D01*
X148702380Y-111829523D01*
X148702380Y-111210476D01*
%TO.C,C2*%
X169253333Y-105767142D02*
X169205714Y-105814761D01*
X169062857Y-105862380D01*
X168967619Y-105862380D01*
X168824761Y-105814761D01*
X168729523Y-105719523D01*
X168681904Y-105624285D01*
X168634285Y-105433809D01*
X168634285Y-105290952D01*
X168681904Y-105100476D01*
X168729523Y-105005238D01*
X168824761Y-104910000D01*
X168967619Y-104862380D01*
X169062857Y-104862380D01*
X169205714Y-104910000D01*
X169253333Y-104957619D01*
X169634285Y-104957619D02*
X169681904Y-104910000D01*
X169777142Y-104862380D01*
X170015238Y-104862380D01*
X170110476Y-104910000D01*
X170158095Y-104957619D01*
X170205714Y-105052857D01*
X170205714Y-105148095D01*
X170158095Y-105290952D01*
X169586666Y-105862380D01*
X170205714Y-105862380D01*
%TO.C,R1*%
X142833333Y-101292380D02*
X142500000Y-100816190D01*
X142261904Y-101292380D02*
X142261904Y-100292380D01*
X142642857Y-100292380D01*
X142738095Y-100340000D01*
X142785714Y-100387619D01*
X142833333Y-100482857D01*
X142833333Y-100625714D01*
X142785714Y-100720952D01*
X142738095Y-100768571D01*
X142642857Y-100816190D01*
X142261904Y-100816190D01*
X143785714Y-101292380D02*
X143214285Y-101292380D01*
X143500000Y-101292380D02*
X143500000Y-100292380D01*
X143404761Y-100435238D01*
X143309523Y-100530476D01*
X143214285Y-100578095D01*
%TO.C,C1*%
X132253333Y-105767142D02*
X132205714Y-105814761D01*
X132062857Y-105862380D01*
X131967619Y-105862380D01*
X131824761Y-105814761D01*
X131729523Y-105719523D01*
X131681904Y-105624285D01*
X131634285Y-105433809D01*
X131634285Y-105290952D01*
X131681904Y-105100476D01*
X131729523Y-105005238D01*
X131824761Y-104910000D01*
X131967619Y-104862380D01*
X132062857Y-104862380D01*
X132205714Y-104910000D01*
X132253333Y-104957619D01*
X133205714Y-105862380D02*
X132634285Y-105862380D01*
X132920000Y-105862380D02*
X132920000Y-104862380D01*
X132824761Y-105005238D01*
X132729523Y-105100476D01*
X132634285Y-105148095D01*
%TO.C,J4*%
X171586666Y-99662380D02*
X171586666Y-100376666D01*
X171539047Y-100519523D01*
X171443809Y-100614761D01*
X171300952Y-100662380D01*
X171205714Y-100662380D01*
X172491428Y-99995714D02*
X172491428Y-100662380D01*
X172253333Y-99614761D02*
X172015238Y-100329047D01*
X172634285Y-100329047D01*
%TD*%
M02*
