%TF.GenerationSoftware,KiCad,Pcbnew,(5.1.12)-1*%
%TF.CreationDate,2023-06-15T15:44:25+02:00*%
%TF.ProjectId,cs2,6373322e-6b69-4636-9164-5f7063625858,rev?*%
%TF.SameCoordinates,Original*%
%TF.FileFunction,Copper,L1,Top*%
%TF.FilePolarity,Positive*%
%FSLAX46Y46*%
G04 Gerber Fmt 4.6, Leading zero omitted, Abs format (unit mm)*
G04 Created by KiCad (PCBNEW (5.1.12)-1) date 2023-06-15 15:44:25*
%MOMM*%
%LPD*%
G01*
G04 APERTURE LIST*
%TA.AperFunction,ComponentPad*%
%ADD10R,1.400000X1.400000*%
%TD*%
%TA.AperFunction,ComponentPad*%
%ADD11O,1.400000X1.400000*%
%TD*%
%TA.AperFunction,ComponentPad*%
%ADD12C,1.600000*%
%TD*%
%TA.AperFunction,ComponentPad*%
%ADD13C,1.400000*%
%TD*%
%TA.AperFunction,ComponentPad*%
%ADD14R,1.700000X1.700000*%
%TD*%
%TA.AperFunction,ComponentPad*%
%ADD15O,1.700000X1.700000*%
%TD*%
%TA.AperFunction,ViaPad*%
%ADD16C,0.800000*%
%TD*%
%TA.AperFunction,Conductor*%
%ADD17C,0.250000*%
%TD*%
%TA.AperFunction,Conductor*%
%ADD18C,0.500000*%
%TD*%
G04 APERTURE END LIST*
D10*
%TO.P,U1,1*%
%TO.N,Net-(J4-Pad16)*%
X169920000Y-108210000D03*
D11*
%TO.P,U1,8*%
%TO.N,Net-(J4-Pad10)*%
X154680000Y-115830000D03*
%TO.P,U1,2*%
%TO.N,Net-(J4-Pad11)*%
X167380000Y-108210000D03*
%TO.P,U1,9*%
X157220000Y-115830000D03*
%TO.P,U1,3*%
%TO.N,Net-(U1-Pad3)*%
X164840000Y-108210000D03*
%TO.P,U1,10*%
%TO.N,Net-(J4-Pad17)*%
X159760000Y-115830000D03*
%TO.P,U1,4*%
%TO.N,Net-(U1-Pad3)*%
X162300000Y-108210000D03*
%TO.P,U1,11*%
%TO.N,N/C*%
X162300000Y-115830000D03*
%TO.P,U1,5*%
%TO.N,Net-(J4-Pad10)*%
X159760000Y-108210000D03*
%TO.P,U1,12*%
%TO.N,N/C*%
X164840000Y-115830000D03*
%TO.P,U1,6*%
%TO.N,Net-(J4-Pad10)*%
X157220000Y-108210000D03*
%TO.P,U1,13*%
%TO.N,N/C*%
X167380000Y-115830000D03*
%TO.P,U1,7*%
%TO.N,GND*%
X154680000Y-108210000D03*
%TO.P,U1,14*%
%TO.N,5V*%
X169920000Y-115830000D03*
%TD*%
%TO.P,U2,14*%
%TO.N,5V*%
X145920000Y-115830000D03*
%TO.P,U2,7*%
%TO.N,GND*%
X130680000Y-108210000D03*
%TO.P,U2,13*%
%TO.N,Net-(J4-Pad12)*%
X143380000Y-115830000D03*
%TO.P,U2,6*%
%TO.N,Net-(J4-Pad4)*%
X133220000Y-108210000D03*
%TO.P,U2,12*%
%TO.N,Net-(J4-Pad15)*%
X140840000Y-115830000D03*
%TO.P,U2,5*%
%TO.N,Net-(J4-Pad5)*%
X135760000Y-108210000D03*
%TO.P,U2,11*%
%TO.N,Net-(J4-Pad14)*%
X138300000Y-115830000D03*
%TO.P,U2,4*%
%TO.N,Net-(J4-Pad5)*%
X138300000Y-108210000D03*
%TO.P,U2,10*%
%TO.N,Net-(J4-Pad13)*%
X135760000Y-115830000D03*
%TO.P,U2,3*%
%TO.N,Net-(J4-Pad14)*%
X140840000Y-108210000D03*
%TO.P,U2,9*%
%TO.N,Net-(J4-Pad13)*%
X133220000Y-115830000D03*
%TO.P,U2,2*%
%TO.N,Net-(J4-Pad14)*%
X143380000Y-108210000D03*
%TO.P,U2,8*%
%TO.N,Net-(J4-Pad5)*%
X130680000Y-115830000D03*
D10*
%TO.P,U2,1*%
%TO.N,Net-(C1-Pad1)*%
X145920000Y-108210000D03*
%TD*%
D12*
%TO.P,C2,2*%
%TO.N,GND*%
X166920000Y-103210000D03*
%TO.P,C2,1*%
%TO.N,5V*%
X171920000Y-103210000D03*
%TD*%
D13*
%TO.P,R1,1*%
%TO.N,Net-(C1-Pad1)*%
X137920000Y-103210000D03*
D11*
%TO.P,R1,2*%
%TO.N,Net-(J4-Pad15)*%
X148080000Y-103210000D03*
%TD*%
D12*
%TO.P,C1,1*%
%TO.N,Net-(C1-Pad1)*%
X134920000Y-103210000D03*
%TO.P,C1,2*%
%TO.N,GND*%
X129920000Y-103210000D03*
%TD*%
D14*
%TO.P,J4,1*%
%TO.N,Net-(J4-Pad1)*%
X171920000Y-97210000D03*
D15*
%TO.P,J4,2*%
%TO.N,Net-(J4-Pad2)*%
X169380000Y-97210000D03*
%TO.P,J4,3*%
%TO.N,5V*%
X166840000Y-97210000D03*
%TO.P,J4,4*%
%TO.N,Net-(J4-Pad4)*%
X164300000Y-97210000D03*
%TO.P,J4,5*%
%TO.N,Net-(J4-Pad5)*%
X161760000Y-97210000D03*
%TO.P,J4,6*%
%TO.N,Net-(J4-Pad6)*%
X159220000Y-97210000D03*
%TO.P,J4,7*%
%TO.N,Net-(J4-Pad7)*%
X156680000Y-97210000D03*
%TO.P,J4,8*%
%TO.N,GND*%
X154140000Y-97210000D03*
%TO.P,J4,9*%
X151600000Y-97210000D03*
%TO.P,J4,10*%
%TO.N,Net-(J4-Pad10)*%
X149060000Y-97210000D03*
%TO.P,J4,11*%
%TO.N,Net-(J4-Pad11)*%
X146520000Y-97210000D03*
%TO.P,J4,12*%
%TO.N,Net-(J4-Pad12)*%
X143980000Y-97210000D03*
%TO.P,J4,13*%
%TO.N,Net-(J4-Pad13)*%
X141440000Y-97210000D03*
%TO.P,J4,14*%
%TO.N,Net-(J4-Pad14)*%
X138900000Y-97210000D03*
%TO.P,J4,15*%
%TO.N,Net-(J4-Pad15)*%
X136360000Y-97210000D03*
%TO.P,J4,16*%
%TO.N,Net-(J4-Pad16)*%
X133820000Y-97210000D03*
%TO.P,J4,17*%
%TO.N,Net-(J4-Pad17)*%
X131280000Y-97210000D03*
%TO.P,J4,18*%
%TO.N,Net-(J4-Pad14)*%
X128740000Y-97210000D03*
%TD*%
D16*
%TO.N,Net-(J4-Pad4)*%
X164320000Y-106010000D03*
%TO.N,Net-(J4-Pad14)*%
X140820000Y-103110000D03*
%TO.N,Net-(J4-Pad17)*%
X152020000Y-110510000D03*
%TD*%
D17*
%TO.N,Net-(C1-Pad1)*%
X137920000Y-103210000D02*
X134920000Y-103210000D01*
X137920000Y-104110000D02*
X137920000Y-103210000D01*
X140020000Y-106210000D02*
X137920000Y-104110000D01*
X144620000Y-106210000D02*
X140020000Y-106210000D01*
X145920000Y-107510000D02*
X144620000Y-106210000D01*
X145920000Y-108210000D02*
X145920000Y-107510000D01*
D18*
%TO.N,GND*%
X151600000Y-97210000D02*
X154140000Y-97210000D01*
X129920000Y-103210000D02*
X129920000Y-104910000D01*
X130680000Y-105670000D02*
X130680000Y-108210000D01*
X129920000Y-104910000D02*
X130680000Y-105670000D01*
X168051370Y-103210000D02*
X172020000Y-107178630D01*
X166920000Y-103210000D02*
X168051370Y-103210000D01*
X172020000Y-107178630D02*
X172020000Y-109110000D01*
X172020000Y-109110000D02*
X170220000Y-110910000D01*
X170220000Y-110910000D02*
X156020000Y-110910000D01*
X154680000Y-109570000D02*
X154680000Y-108210000D01*
X156020000Y-110910000D02*
X154680000Y-109570000D01*
X126920000Y-100210000D02*
X129920000Y-103210000D01*
X126920000Y-96610000D02*
X126920000Y-100210000D01*
X127820000Y-95710000D02*
X126920000Y-96610000D01*
X150100000Y-95710000D02*
X127820000Y-95710000D01*
X151600000Y-97210000D02*
X150100000Y-95710000D01*
%TO.N,5V*%
X169920000Y-115830000D02*
X167440000Y-118310000D01*
X148400000Y-118310000D02*
X145920000Y-115830000D01*
X167440000Y-118310000D02*
X148400000Y-118310000D01*
X173020000Y-112730000D02*
X169920000Y-115830000D01*
X173020000Y-104310000D02*
X173020000Y-112730000D01*
X171920000Y-103210000D02*
X173020000Y-104310000D01*
X166840000Y-98130000D02*
X171920000Y-103210000D01*
X166840000Y-97210000D02*
X166840000Y-98130000D01*
D17*
%TO.N,Net-(U1-Pad3)*%
X164840000Y-108210000D02*
X162300000Y-108210000D01*
%TO.N,Net-(J4-Pad4)*%
X164300000Y-105990000D02*
X164320000Y-106010000D01*
X164300000Y-97210000D02*
X164300000Y-105990000D01*
%TO.N,Net-(J4-Pad5)*%
X130680000Y-115830000D02*
X130680000Y-113750000D01*
X130680000Y-113750000D02*
X132520000Y-111910000D01*
X132520000Y-111910000D02*
X133920000Y-111910000D01*
X135760000Y-110070000D02*
X135760000Y-108210000D01*
X133920000Y-111910000D02*
X135760000Y-110070000D01*
X135760000Y-108210000D02*
X138300000Y-108210000D01*
%TO.N,Net-(J4-Pad10)*%
X159760000Y-108210000D02*
X157220000Y-108210000D01*
X149060000Y-99050000D02*
X149060000Y-97210000D01*
X152020000Y-105510000D02*
X152020000Y-102010000D01*
X153120000Y-106610000D02*
X152020000Y-105510000D01*
X152020000Y-102010000D02*
X149060000Y-99050000D01*
X156620000Y-106610000D02*
X153120000Y-106610000D01*
X157220000Y-107210000D02*
X156620000Y-106610000D01*
X157220000Y-108210000D02*
X157220000Y-107210000D01*
%TO.N,Net-(J4-Pad11)*%
X151220000Y-102110000D02*
X146520000Y-97410000D01*
X151220000Y-107510000D02*
X151220000Y-102110000D01*
X146520000Y-97410000D02*
X146520000Y-97210000D01*
X157220000Y-113510000D02*
X151220000Y-107510000D01*
X157220000Y-115830000D02*
X157220000Y-113510000D01*
%TO.N,Net-(J4-Pad12)*%
X145920000Y-100610000D02*
X143980000Y-98670000D01*
X148820000Y-100610000D02*
X145920000Y-100610000D01*
X150520000Y-102310000D02*
X148820000Y-100610000D01*
X150520000Y-109560000D02*
X150520000Y-102310000D01*
X147970000Y-112110000D02*
X150520000Y-109560000D01*
X144320000Y-112110000D02*
X147970000Y-112110000D01*
X143380000Y-113050000D02*
X144320000Y-112110000D01*
X143980000Y-98670000D02*
X143980000Y-97210000D01*
X143380000Y-115830000D02*
X143380000Y-113050000D01*
%TO.N,Net-(J4-Pad13)*%
X135760000Y-115830000D02*
X133220000Y-115830000D01*
X135760000Y-116650000D02*
X135760000Y-115830000D01*
X136620000Y-117510000D02*
X135760000Y-116650000D01*
X141220000Y-117510000D02*
X136620000Y-117510000D01*
X142120000Y-116610000D02*
X141220000Y-117510000D01*
X142120000Y-112410000D02*
X142120000Y-116610000D01*
X143120000Y-111410000D02*
X142120000Y-112410000D01*
X147820000Y-111410000D02*
X143120000Y-111410000D01*
X149820000Y-109410000D02*
X147820000Y-111410000D01*
X149820000Y-102410000D02*
X149820000Y-109410000D01*
X148720000Y-101310000D02*
X149820000Y-102410000D01*
X145540000Y-101310000D02*
X148720000Y-101310000D01*
X141440000Y-97210000D02*
X145540000Y-101310000D01*
%TO.N,Net-(J4-Pad14)*%
X138300000Y-115830000D02*
X138300000Y-112830000D01*
X140840000Y-110290000D02*
X140840000Y-108210000D01*
X138300000Y-112830000D02*
X140840000Y-110290000D01*
X140840000Y-108210000D02*
X143380000Y-108210000D01*
X138900000Y-99390000D02*
X138900000Y-97210000D01*
X140820000Y-101310000D02*
X138900000Y-99390000D01*
X140820000Y-103110000D02*
X140820000Y-101310000D01*
%TO.N,Net-(J4-Pad15)*%
X140840000Y-111990000D02*
X140840000Y-115830000D01*
X148080000Y-110250000D02*
X147420000Y-110910000D01*
X141920000Y-110910000D02*
X140840000Y-111990000D01*
X147420000Y-110910000D02*
X141920000Y-110910000D01*
X148080000Y-103210000D02*
X148080000Y-110250000D01*
X136360000Y-97950000D02*
X136360000Y-97210000D01*
X139320000Y-100910000D02*
X136360000Y-97950000D01*
X139320000Y-104510000D02*
X139320000Y-100910000D01*
X140320000Y-105510000D02*
X139320000Y-104510000D01*
X145780000Y-105510000D02*
X140320000Y-105510000D01*
X148080000Y-103210000D02*
X145780000Y-105510000D01*
%TO.N,Net-(J4-Pad17)*%
X157980000Y-117610000D02*
X159760000Y-115830000D01*
X153850000Y-117610000D02*
X157980000Y-117610000D01*
X152020000Y-115780000D02*
X153850000Y-117610000D01*
X152020000Y-110510000D02*
X152020000Y-115780000D01*
%TD*%
M02*
