M48
; DRILL file {KiCad (5.1.12)-1} date 06/15/23 15:44:23
; FORMAT={-:-/ absolute / metric / decimal}
; #@! TF.CreationDate,2023-06-15T15:44:23+02:00
; #@! TF.GenerationSoftware,Kicad,Pcbnew,(5.1.12)-1
; #@! TF.FileFunction,Plated,1,2,PTH
FMAT,2
METRIC
T1C0.400
T2C0.800
T3C1.000
%
G90
G05
T1
X140.82Y-103.11
X152.02Y-110.51
X164.32Y-106.01
T2
X129.92Y-103.21
X130.68Y-108.21
X130.68Y-115.83
X133.22Y-108.21
X133.22Y-115.83
X134.92Y-103.21
X135.76Y-108.21
X135.76Y-115.83
X137.92Y-103.21
X138.3Y-108.21
X138.3Y-115.83
X140.84Y-108.21
X140.84Y-115.83
X143.38Y-108.21
X143.38Y-115.83
X145.92Y-108.21
X145.92Y-115.83
X148.08Y-103.21
X154.68Y-108.21
X154.68Y-115.83
X157.22Y-108.21
X157.22Y-115.83
X159.76Y-108.21
X159.76Y-115.83
X162.3Y-108.21
X162.3Y-115.83
X164.84Y-108.21
X164.84Y-115.83
X166.92Y-103.21
X167.38Y-108.21
X167.38Y-115.83
X169.92Y-108.21
X169.92Y-115.83
X171.92Y-103.21
T3
X128.74Y-97.21
X131.28Y-97.21
X133.82Y-97.21
X136.36Y-97.21
X138.9Y-97.21
X141.44Y-97.21
X143.98Y-97.21
X146.52Y-97.21
X149.06Y-97.21
X151.6Y-97.21
X154.14Y-97.21
X156.68Y-97.21
X159.22Y-97.21
X161.76Y-97.21
X164.3Y-97.21
X166.84Y-97.21
X169.38Y-97.21
X171.92Y-97.21
T0
M30
