M48
; DRILL file {KiCad (5.1.12)-1} date 06/15/23 15:48:15
; FORMAT={-:-/ absolute / metric / decimal}
; #@! TF.CreationDate,2023-06-15T15:48:15+02:00
; #@! TF.GenerationSoftware,Kicad,Pcbnew,(5.1.12)-1
; #@! TF.FileFunction,Plated,1,2,PTH
FMAT,2
METRIC
T1C0.400
T2C0.730
T3C0.780
T4C0.800
T5C0.900
T6C1.000
T7C1.500
%
G90
G05
T1
X115.7Y-110.2
X129.9Y-79.8
X137.3Y-75.5
X137.4Y-114.1
X141.85Y-96.95
X155.9Y-84.9
X159.05Y-93.25
T2
X117.5Y-106.03
X117.5Y-113.97
X120.04Y-106.03
X120.04Y-113.97
X122.58Y-106.03
X122.58Y-113.97
X125.12Y-106.03
X125.12Y-113.97
X127.66Y-106.03
X127.66Y-113.97
X130.2Y-106.03
X130.2Y-113.97
X132.74Y-106.03
X132.74Y-113.97
X135.28Y-106.03
X135.28Y-113.97
X139.5Y-106.03
X139.5Y-113.97
X142.04Y-106.03
X142.04Y-113.97
X144.58Y-106.03
X144.58Y-113.97
X147.12Y-106.03
X147.12Y-113.97
X149.66Y-106.03
X149.66Y-113.97
X152.2Y-106.03
X152.2Y-113.97
X154.74Y-106.03
X154.74Y-113.97
X157.28Y-106.03
X157.28Y-113.97
T3
X122.0Y-85.0
X122.0Y-87.54
X122.0Y-90.08
X122.0Y-92.62
X122.0Y-95.16
X129.62Y-85.0
X129.62Y-87.54
X129.62Y-90.08
X129.62Y-92.62
X129.62Y-95.16
X132.0Y-85.0
X132.0Y-87.54
X132.0Y-90.08
X132.0Y-92.62
X132.0Y-95.16
X139.62Y-85.0
X139.62Y-87.54
X139.62Y-90.08
X139.62Y-92.62
X139.62Y-95.16
T4
X116.0Y-76.0
X116.0Y-99.0
X116.5Y-80.0
X116.5Y-85.0
X117.25Y-102.0
X118.54Y-99.0
X119.76Y-75.5
X119.76Y-83.12
X119.79Y-102.0
X121.08Y-99.0
X122.3Y-75.5
X122.3Y-83.12
X122.33Y-102.0
X123.62Y-99.0
X124.65Y-86.3
X124.84Y-75.5
X124.84Y-83.12
X124.87Y-102.0
X125.2Y-108.6
X126.16Y-99.0
X127.38Y-75.5
X127.38Y-83.12
X127.41Y-102.0
X128.7Y-99.0
X129.92Y-75.5
X129.92Y-83.12
X129.95Y-102.0
X131.24Y-99.0
X132.46Y-75.5
X132.46Y-83.12
X132.49Y-102.0
X133.78Y-99.0
X135.0Y-75.5
X135.0Y-83.12
X135.0Y-94.3
X135.03Y-102.0
X138.0Y-99.0
X138.5Y-108.6
X139.25Y-102.0
X140.54Y-99.0
X141.79Y-102.0
X143.08Y-99.0
X144.33Y-102.0
X145.62Y-99.0
X146.87Y-102.0
X148.16Y-99.0
X149.41Y-102.0
X150.7Y-99.0
X151.95Y-102.0
X153.24Y-99.0
X154.49Y-102.0
X155.78Y-99.0
X157.03Y-102.0
X160.0Y-76.0
T5
X116.0Y-87.38
X116.0Y-95.0
X118.5Y-87.38
X118.5Y-95.0
T6
X116.0Y-119.0
X118.5Y-122.0
X118.54Y-119.0
X121.04Y-122.0
X121.08Y-119.0
X123.58Y-122.0
X123.62Y-119.0
X126.12Y-122.0
X126.16Y-119.0
X128.66Y-122.0
X128.7Y-119.0
X131.2Y-122.0
X131.24Y-119.0
X133.74Y-122.0
X133.78Y-119.0
X136.28Y-122.0
X136.32Y-119.0
X138.82Y-122.0
X138.86Y-119.0
X141.36Y-122.0
X141.4Y-119.0
X143.9Y-122.0
X143.94Y-119.0
X146.44Y-122.0
X146.48Y-119.0
X148.98Y-122.0
X149.02Y-119.0
X151.52Y-122.0
X151.56Y-119.0
X154.06Y-122.0
X154.1Y-119.0
X156.6Y-122.0
X156.64Y-119.0
X159.18Y-119.0
T7
X152.0Y-87.0
X152.0Y-90.0
X152.0Y-93.0
T0
M30
