%TF.GenerationSoftware,KiCad,Pcbnew,(5.1.12)-1*%
%TF.CreationDate,2023-06-15T15:48:18+02:00*%
%TF.ProjectId,cs3,6373332e-6b69-4636-9164-5f7063625858,rev?*%
%TF.SameCoordinates,Original*%
%TF.FileFunction,Soldermask,Bot*%
%TF.FilePolarity,Negative*%
%FSLAX46Y46*%
G04 Gerber Fmt 4.6, Leading zero omitted, Abs format (unit mm)*
G04 Created by KiCad (PCBNEW (5.1.12)-1) date 2023-06-15 15:48:18*
%MOMM*%
%LPD*%
G01*
G04 APERTURE LIST*
%ADD10C,1.400000*%
%ADD11R,1.700000X2.800000*%
%ADD12R,1.700000X1.700000*%
%ADD13O,1.700000X1.700000*%
%ADD14C,1.130000*%
%ADD15R,1.130000X1.130000*%
%ADD16O,1.600000X1.600000*%
%ADD17R,1.600000X1.600000*%
%ADD18R,1.800000X1.800000*%
%ADD19O,1.800000X1.800000*%
%ADD20C,1.600000*%
%ADD21C,1.337000*%
%ADD22R,1.337000X1.337000*%
%ADD23R,1.400000X1.400000*%
%ADD24O,1.400000X1.400000*%
%ADD25O,3.000000X2.500000*%
G04 APERTURE END LIST*
D10*
%TO.C,REF\u002A\u002A*%
X160000000Y-76000000D03*
%TD*%
%TO.C,REF\u002A\u002A*%
X116000000Y-76000000D03*
%TD*%
D11*
%TO.C,J6*%
X118500000Y-122550000D03*
X121040000Y-122550000D03*
X123580000Y-122550000D03*
X126120000Y-122550000D03*
X128660000Y-122550000D03*
X131200000Y-122550000D03*
X133740000Y-122550000D03*
X136280000Y-122550000D03*
X138820000Y-122550000D03*
X141360000Y-122550000D03*
X143900000Y-122550000D03*
X146440000Y-122550000D03*
X148980000Y-122550000D03*
X151520000Y-122550000D03*
X154060000Y-122550000D03*
X156600000Y-122550000D03*
%TD*%
D12*
%TO.C,J5*%
X116000000Y-119000000D03*
D13*
X118540000Y-119000000D03*
X121080000Y-119000000D03*
X123620000Y-119000000D03*
X126160000Y-119000000D03*
X128700000Y-119000000D03*
X131240000Y-119000000D03*
X133780000Y-119000000D03*
X136320000Y-119000000D03*
X138860000Y-119000000D03*
X141400000Y-119000000D03*
X143940000Y-119000000D03*
X146480000Y-119000000D03*
X149020000Y-119000000D03*
X151560000Y-119000000D03*
X154100000Y-119000000D03*
X156640000Y-119000000D03*
X159180000Y-119000000D03*
%TD*%
D14*
%TO.C,U5*%
X139500000Y-106030000D03*
X142040000Y-106030000D03*
X144580000Y-106030000D03*
X147120000Y-106030000D03*
X149660000Y-106030000D03*
X152200000Y-106030000D03*
X154740000Y-106030000D03*
X157280000Y-106030000D03*
X157280000Y-113970000D03*
X154740000Y-113970000D03*
X152200000Y-113970000D03*
X149660000Y-113970000D03*
X147120000Y-113970000D03*
X144580000Y-113970000D03*
X142040000Y-113970000D03*
D15*
X139500000Y-113970000D03*
%TD*%
%TO.C,U4*%
X117500000Y-113970000D03*
D14*
X120040000Y-113970000D03*
X122580000Y-113970000D03*
X125120000Y-113970000D03*
X127660000Y-113970000D03*
X130200000Y-113970000D03*
X132740000Y-113970000D03*
X135280000Y-113970000D03*
X135280000Y-106030000D03*
X132740000Y-106030000D03*
X130200000Y-106030000D03*
X127660000Y-106030000D03*
X125120000Y-106030000D03*
X122580000Y-106030000D03*
X120040000Y-106030000D03*
X117500000Y-106030000D03*
%TD*%
D16*
%TO.C,RN4*%
X157030000Y-102000000D03*
X154490000Y-102000000D03*
X151950000Y-102000000D03*
X149410000Y-102000000D03*
X146870000Y-102000000D03*
X144330000Y-102000000D03*
X141790000Y-102000000D03*
D17*
X139250000Y-102000000D03*
%TD*%
D16*
%TO.C,RN2*%
X135030000Y-102000000D03*
X132490000Y-102000000D03*
X129950000Y-102000000D03*
X127410000Y-102000000D03*
X124870000Y-102000000D03*
X122330000Y-102000000D03*
X119790000Y-102000000D03*
D17*
X117250000Y-102000000D03*
%TD*%
%TO.C,RN3*%
X138000000Y-99000000D03*
D16*
X140540000Y-99000000D03*
X143080000Y-99000000D03*
X145620000Y-99000000D03*
X148160000Y-99000000D03*
X150700000Y-99000000D03*
X153240000Y-99000000D03*
X155780000Y-99000000D03*
%TD*%
D17*
%TO.C,RN1*%
X116000000Y-99000000D03*
D16*
X118540000Y-99000000D03*
X121080000Y-99000000D03*
X123620000Y-99000000D03*
X126160000Y-99000000D03*
X128700000Y-99000000D03*
X131240000Y-99000000D03*
X133780000Y-99000000D03*
%TD*%
D18*
%TO.C,D2*%
X118500000Y-95000000D03*
D19*
X118500000Y-87380000D03*
%TD*%
%TO.C,D1*%
X116000000Y-87380000D03*
D18*
X116000000Y-95000000D03*
%TD*%
D20*
%TO.C,C3*%
X116500000Y-80000000D03*
X116500000Y-85000000D03*
%TD*%
D21*
%TO.C,DS2*%
X139620000Y-85000000D03*
X139620000Y-87540000D03*
X139620000Y-90080000D03*
X139620000Y-92620000D03*
X139620000Y-95160000D03*
X132000000Y-95160000D03*
X132000000Y-92620000D03*
X132000000Y-90080000D03*
X132000000Y-87540000D03*
D22*
X132000000Y-85000000D03*
%TD*%
%TO.C,DS1*%
X122000000Y-85000000D03*
D21*
X122000000Y-87540000D03*
X122000000Y-90080000D03*
X122000000Y-92620000D03*
X122000000Y-95160000D03*
X129620000Y-95160000D03*
X129620000Y-92620000D03*
X129620000Y-90080000D03*
X129620000Y-87540000D03*
X129620000Y-85000000D03*
%TD*%
D23*
%TO.C,U3*%
X135000000Y-75500000D03*
D24*
X119760000Y-83120000D03*
X132460000Y-75500000D03*
X122300000Y-83120000D03*
X129920000Y-75500000D03*
X124840000Y-83120000D03*
X127380000Y-75500000D03*
X127380000Y-83120000D03*
X124840000Y-75500000D03*
X129920000Y-83120000D03*
X122300000Y-75500000D03*
X132460000Y-83120000D03*
X119760000Y-75500000D03*
X135000000Y-83120000D03*
%TD*%
D25*
%TO.C,SW1*%
X152000000Y-87000000D03*
X152000000Y-90000000D03*
X152000000Y-93000000D03*
%TD*%
M02*
